<?xml version="1.0" encoding="utf-8"?>
<!-- Generator: Adobe Illustrator 22.1.0, SVG Export Plug-In . SVG Version: 6.00 Build 0)  -->
<svg version="1.1" id="_x39_" xmlns="http://www.w3.org/2000/svg" xmlns:xlink="http://www.w3.org/1999/xlink" x="0px" y="0px"
	 viewBox="0 0 128 108" style="enable-background:new 0 0 128 108;" xml:space="preserve">
<style type="text/css">
	.st0{fill:#FFE3C4;}
	.st1{fill:#BF902C;}
</style>
<g>
	<rect class="st0" width="128" height="108"/>
	<g>
		<g>
			<g>
				<path class="st1" d="M69.478,99.039c3.549-10.934-0.975-22.724-5.885-29.087c-4.805-6.194-7.072-6.429-6.142-4.181
					c0.93,2.248,0.163,7.44,4.865,9.691c3.431,2.102,4.954,4.922,2.773,3.691c-2.182-1.231-3.685-2.886-3.327-0.045
					c0.358,2.841,5.018,4.647,5.948,6.895c0,0-3.475-0.66-2.057,1.99C67.07,90.643,69.779,94.609,69.478,99.039z"/>
				<path class="st1" d="M48.467,107.75c-0.388-0.008-0.931,0.077-1.585,0.25h2.671C49.449,107.845,49.122,107.767,48.467,107.75z"
					/>
				<path class="st1" d="M49.12,51.692c1.381,2.871,0.631,6.358-2.829,7.113c-3.46,0.755-7.323-1.726-7.226-6.128
					c0.097-4.402,2.931-4.567,4.383-7.603c1.741-3.099,0.336-4.001-0.354-3.7c-0.689,0.302-1.14,1.004-2.443,2.648
					c-0.301-0.69,0.6-2.095,1.389-3.324c0.789-1.23,2.705-4.216,0.097-4.402c-2.608-0.186-6.823,3.809-7.655,9.223
					c-0.762,4.96,1.713,12.014,6.504,14.594c4.791,2.58,7.467,0.023,9.628-2.251c1.929-2.03,0.585-6.321-0.081-7.989
					c-0.666-1.667-3.337-2.142-3.599-0.574C46.674,50.866,48.706,51.178,49.12,51.692z"/>
				<path class="st1" d="M50.992,75.28c-3.067-8.204-14.361-15.623-24.087-14.055c-9.726,1.577-14.956,7.299-16.463,11.944
					c-1.516,4.636-0.353,8.522,1.12,8.204c1.473-0.319,4.066-4.679,3.774-6.592c-0.302-1.913,0.396,0.905,2.076,1.559
					c0,0,1.103-1.663,1.421-3.628c0.319-1.964,5.729-10.461,16.093-7.152c-1.447-0.121-5.625,1.387-3.971,1.732
					c1.663,0.354,9.933,1.344,13.896,6.489c3.972,5.136,1.551,5.98,1.077,4.894c-0.474-1.077-4.032-3.067-4.325-1.543
					c-0.301,1.534,1.723,3.223,2.102,4.559c0.37,1.344-1.775-2.335-4.101-1.749c-0.026,3.128,1.499,2.68,1.301,8.126
					c-0.189,5.455-3.429,10.315-7.495,12.314c2.137-1.258,5.419-7.747,4.075-10.815c-0.603-1.129-1.223-1.068-1.654-0.345
					c-0.439,0.724-0.034-4.498-4.282-5.11c-2.584-0.267-3.48,0.129-2.111,0.819c1.378,0.689,3.627,4.102,0.345,7.902
					c-1.663-1.844-1.154-2.395-1.938-0.758c-0.793,1.637-2.283,2.396-2.602,5.11c-0.31,2.714-2.912,7.075-9.416,7.669
					c4.394-3.214,6.901-5.817,6.565-9.531c-0.284-0.414-1.956,1.172-1.956,1.172s0.577-6.049-3.205-7.075
					c-1.74,2.154-1.99,6.988-3.067,7.463c0,0-0.276-1.603-1.413-1.749c-1.137-0.146-1.241,0.112-0.965,2.464
					c0.25,2.06-3.67,7.428-7.814,10.401h5.186c1.172-0.844,2.36-1.853,3.222-2.843c1.826-2.094,1.533-4.783,1.292-6.446
					c0.448,0.284,1.155,1.913,0.767,4.335c1.731-1.56,3.696-5.73,3.989-7.626c0.603,4.946-5.574,10.591-7.969,12.581h4.385
					c3.446-0.543,10.674-1.922,11.725-2.456c1.258-0.629,3.635-3.843,4.006-5.377c0.353-1.439,0.319-4.412,0.31-4.774
					c0.009,0.319,0.104,2.749,0.767,3.74c2.938-3.783,2.765-8.221,2.584-9.186c2.688,5.834-6.272,15.477-6.272,15.477
					c5.643-1.267,13.482-5.472,16.05-9.522c1.422-2.249,1.534-3.662,1.637-5.636c0.103-1.982-2.61-6.515-2.826-6.825
					c-0.215-0.302,1.99,1.792,3.162,4.826c0.431-1.965,0.414-3.645-0.344-6.859c2.938,3.946,0.31,12.107,0.31,12.107
					c1.93-2.939,2.688-5.446,3.412-12.443c2.438,20.681-22.183,26.059-28.36,26.671c-0.724,0.069-1.49,0.155-2.274,0.258h13.792
					c1.516-0.517,3.032-1.086,4.549-1.706C51.577,100.313,55.075,86.215,50.992,75.28z M38.069,66.68c0,0,0.439-0.276,3.704,1.112
					c-3.317-2.973-7.435-4.472-11.501-4.946c-4.075-0.474-10.174,2.516-11.174,3.361c-1.008,0.836-2.765,3.059-2.093,7.359
					c-0.844-1-0.698-4.533-0.31-4.938c-3.144,2.016-4.73,7.23-5.35,9.668c0.069-5.343,2.886-11.978,12.767-15.175
					c9.873-3.197,17.281,2.508,21.589,8.109C43.746,69.352,39.077,66.965,38.069,66.68z"/>
				<path class="st1" d="M0.603,63.656C0.405,63.423,0.207,63.19,0,62.966v4.843c0.577,1.198,0.775,2.12,0.517,2.542
					C0.413,69.826,0.241,69.291,0,68.749v11.288C4.006,76.986,5.936,71.187,0.603,63.656z"/>
				<path class="st1" d="M23.665,46.947c-3.575,0.612-5.152,2.215-8.779,1.155c-3.627-1.069-5.979-2.654-3.196-2.094
					c2.783,0.56,4.29,1.646,6.926,0.035c2.636-1.611,4.979-2.895,3.696-3.43c-1.284-0.543-5.402-3.318-9.218-1.75
					c-3.825,1.569-6.461,1.37-9.459,1.319C2.722,42.164,1.421,41.897,0,41.449v1.999c1.042,0.422,1.955,0.724,2.602,0.862
					c2.214,0.474,6.642-0.388,9.382-0.448c2.74-0.052,5.66-0.189,6.34-0.362c0.052-0.017,0.086-0.017,0.095-0.017
					c-0.181,0.104-2.636,0.862-5.953,1.034c-3.851,0.198-9.442,0.577-9.442,0.577s5.083,2.275,8.804,3.835
					c-0.741-0.155-1.516-0.362-2.326-0.612c-3.058-0.94-6.504-2.439-9.502-3.99v3.464c0.172,0.215,0.37,0.431,0.569,0.646
					C0.405,48.317,0.207,48.136,0,47.92v3.43c1.016,1.56,2.679,3.24,5.264,3.887c1.353-0.345-0.164-2.49-1.809-4.679
					c-1.646-2.197-1.594-2.326,0.818-0.87c2.404,1.456,1.973,2.49,4.006,4.843c2.025,2.361,5.608,2.801,7.417,2.809
					c1.275-0.526-0.732-4.378-3.17-5.403c-2.309-0.965-4.238-3.128-3.256-2.852c0.052,0.009,0.121,0.035,0.198,0.069
					c1.413,0.586,3.17,2.525,6.556,3.8c3.394,1.267,10.338,1.612,13.362-1.654C31.014,49.566,27.24,46.326,23.665,46.947z
					 M23.665,46.947c-3.575,0.612-5.152,2.215-8.779,1.155c-3.627-1.069-5.979-2.654-3.196-2.094c2.783,0.56,4.29,1.646,6.926,0.035
					c2.636-1.611,4.979-2.895,3.696-3.43c-1.284-0.543-5.402-3.318-9.218-1.75c-3.825,1.569-6.461,1.37-9.459,1.319
					C2.722,42.164,1.421,41.897,0,41.449v1.999c1.042,0.422,1.955,0.724,2.602,0.862c2.214,0.474,6.642-0.388,9.382-0.448
					c2.74-0.052,5.66-0.189,6.34-0.362c0.052-0.017,0.086-0.017,0.095-0.017c-0.181,0.104-2.636,0.862-5.953,1.034
					c-3.851,0.198-9.442,0.577-9.442,0.577s5.083,2.275,8.804,3.835c-0.741-0.155-1.516-0.362-2.326-0.612L9.27,49.084
					c0.052,0.009,0.121,0.035,0.198,0.069c1.413,0.586,3.17,2.525,6.556,3.8c3.394,1.267,10.338,1.612,13.362-1.654
					C31.014,49.566,27.24,46.326,23.665,46.947z"/>
				<g>
					<path class="st1" d="M1.137,102.493c-0.44-0.396-0.767-0.905-1.137-1.396v3.093C1.576,103.846,2.119,103.372,1.137,102.493z
						 M7.124,93.032C5.737,91.645,5.048,89.998,0,89.421v8.661c0.603-0.086,1.137-0.233,1.559-0.457
						C3.644,96.505,8.511,94.419,7.124,93.032z M1.137,102.493c-0.44-0.396-0.767-0.905-1.137-1.396v3.093
						C1.576,103.846,2.119,103.372,1.137,102.493z M7.124,93.032C5.737,91.645,5.048,89.998,0,89.421v8.661
						c0.603-0.086,1.137-0.233,1.559-0.457C3.644,96.505,8.511,94.419,7.124,93.032z"/>
				</g>
				<path class="st1" d="M69.255,103.976c-2.111,1.68-1.568,3.938-2.059,3.938c-0.078,0-0.181-0.052-0.327-0.181
					c-0.801-0.689-0.904-4.378-1.843-7.919c-0.948-3.533-8.503-9.841-9.071-6.144c-0.577,3.705-0.198,8.427,2.326,12.4
					c0.491,0.776,0.887,1.405,1.206,1.93h4.531c-0.301-0.879-0.681-1.585-1.146-1.93c-1.568-1.172-2.395-2.223-2.498-2.353
					l2.361,0.965c0,0-1.534-2.93-2.369-4.877c-0.836-1.948-0.551-2.361,0-1.388c1.783,3.111,3.756,6.17,4.704,9.582h7.073
					C72.046,106.19,71.297,104.82,69.255,103.976z"/>
				<path class="st1" d="M22.805,85.615c-1.948-6.679,0.835-11.967,4.174-13.637c1.113,0.835,0.278,3.896-1.113,5.009
					c3.617-2.783,6.121-5.288,8.903-2.783c-3.339,4.175-6.399,3.34-9.46,6.958C22.249,84.78,22.805,85.615,22.805,85.615z"/>
			</g>
			<path class="st1" d="M15.007,34.052c3.159-1.723,4.882-6.894,10.625-7.755c1.436,2.585,0.861,4.309-2.01,5.17
				c-1.983,0.595-2.297,3.734,0.574,1.724s4.595-2.298,6.03-2.011c0.287,1.723,0.287,1.723,0.287,1.723s4.307-3.16,6.605-2.011
				c-0.574,4.021-2.584,7.756-7.179,8.33c-4.595,0.575-8.041-2.298-12.061-2.298s-4.595-0.287-6.03-0.574
				C10.413,36.063,15.007,34.052,15.007,34.052z"/>
			<path class="st1" d="M74.769,23.344c0,0-2.024-4.498-1.809-1.043c0.215,3.447,0.276,6.274-0.784,10.04
				c-0.543,1.93-1.18,3.352-1.818,4.558c-0.749,1.422,0.947,2.215,1.68,1.74c2.007-1.309,2.197,0.095-1.197,2.939
				c-4.213,3.516-3.239,3.593-0.37,3.654c2.877,0.06,0.241,2.301-4.351,2.206c-4.592-0.095-7.271,4.447-7.271,4.447
				S61.105,53.66,64,52.858c2.886-0.81,4.868,0.672,1.697,0.896c-3.162,0.215-8.572,1.611-10.131,7.325
				c8.873,1.371,15.446-2.042,19.892-8.85C79.912,45.43,79.49,31.195,74.769,23.344z M60.563,59.14c0,0,3.472-1.327,6.091-2.783
				c2.61-1.456,5.023-3.447,5.91-4.619c0.887-1.163,1.335-2.128-1.801-1.439c-3.136,0.689-6.263,0.844-7.564,1.034
				c-1.292,0.181,1.525-0.836,3.041-1.017c1.508-0.181,5.074-0.646,7.03-1.258c1.947-0.603,3.118-5.214,2.938-6.618
				c-0.189-1.404-0.982,0.302-2.714,1.025c-1.74,0.715,2.731-1.887,2.765-3.611c0.017-1.051-0.077-6.317-0.387-8.858
				c-0.138-0.586-0.242-1.025-0.267-1.275c0.103,0.189,0.19,0.655,0.267,1.275C77.138,36.365,81.549,54.332,60.563,59.14z
				 M74.769,23.344c0,0-2.024-4.498-1.809-1.043c0.215,3.447,0.276,6.274-0.784,10.04c-0.543,1.93-1.18,3.352-1.818,4.558
				c-0.749,1.422,0.947,2.215,1.68,1.74c2.007-1.309,2.197,0.095-1.197,2.939c-4.213,3.516-3.239,3.593-0.37,3.654
				c2.877,0.06,0.241,2.301-4.351,2.206c-4.592-0.095-7.271,4.447-7.271,4.447S61.105,53.66,64,52.858
				c2.886-0.81,4.868,0.672,1.697,0.896c-3.162,0.215-8.572,1.611-10.131,7.325c8.873,1.371,15.446-2.042,19.892-8.85
				C79.912,45.43,79.49,31.195,74.769,23.344z M60.563,59.14c0,0,3.472-1.327,6.091-2.783c2.61-1.456,5.023-3.447,5.91-4.619
				c0.887-1.163,1.335-2.128-1.801-1.439c-3.136,0.689-6.263,0.844-7.564,1.034c-1.292,0.181,1.525-0.836,3.041-1.017
				c1.508-0.181,5.074-0.646,7.03-1.258c1.947-0.603,3.118-5.214,2.938-6.618c-0.189-1.404-0.982,0.302-2.714,1.025
				c-1.74,0.715,2.731-1.887,2.765-3.611c0.017-1.051-0.077-6.317-0.387-8.858c-0.138-0.586-0.242-1.025-0.267-1.275
				c0.103,0.189,0.19,0.655,0.267,1.275C77.138,36.365,81.549,54.332,60.563,59.14z"/>
			<path class="st1" d="M73.086,86.33c1.077-3.016,7.969-6.247,9.046-12.064c-3.446-0.862-3.877,2.37-5.384,2.585
				c-1.508,0.215-1.938,0.431,0-2.37c1.938-2.801-1.077-8.833-1.938-6.894C73.948,69.526,70.932,77.282,73.086,86.33z"/>
		</g>
		<path class="st1" d="M65.467,35.581c-0.431,3.016-1.508,9.694-10.553,12.064c-0.431-3.662,3.661-6.032,6.676-7.325
			c2.154-2.801,0.646-2.154-2.154-0.646c-2.8,1.293-4.523,0.862-4.523,0.862S56.206,36.442,65.467,35.581z"/>
		<path class="st1" d="M83.35,47.566c-1.379-0.866-1.405-3.719-0.613-4.758c1.832-0.246,2.85,1.966,2.785,3.589
			s1.479-2.244,4.674-0.559c-0.502,1.671-2.675,2.84-3.724,2.757c-1.049-0.084,1.472,0.103,1.74,4.147
			c-0.894,0.519-3.394-2.083-3.641-2.919c-0.764,0.903-2.781,1.679-4.437,1.109c0.823-2.171,2.155-2.739,2.893-2.864
			C83.767,47.941,83.35,47.566,83.35,47.566z"/>
	</g>
	<g>
		<g>
			<g>
				<path class="st1" d="M49.553,0h-2.705c-4.127,1.086-12.655,5.429-16.067,9.703c-3.954,4.973-1.792,7.075-1.068,6.644
					c0.715-0.431,2.869-0.982,1.74-0.095c-1.129,0.888-2.481,4.981-1.671,7.773c0.81,2.783,0.603,3.757,0.603,3.757
					c3.911-0.215,7.116-2.965,7.047-5.748c-0.06-2.792,1.146-3.861,1.421-2.784c0.276,1.069,0.672,4.326,1.594,3.662
					c0.922-0.663,3.61-0.982,2.757-5.386c-0.853-4.403-1.249-6.911-0.508-6.17c0.732,0.749,1.163,2.947,1.887,1.034
					c0.723-1.913-0.758-3.404,1.378-7.359C47.614,1.982,49.897,0.534,49.553,0z M44.393,3.093c-1.534,1.474-3.627,3.912-5.694,6.842
					c-0.112,0.603-0.164,1.404,0.103,2.076c0.508,1.275,2.24,4.153,1.637,6.756c-0.121-2.146-2.412-5.515-2.765-7.334
					c-0.879,1.327-1.74,2.732-2.533,4.179l-0.258,6.687c-0.146-0.353-0.663-3.576-0.439-5.36c-1.353,2.663-2.429,5.42-2.946,8.031
					c-0.103-1.241,0.173-6.377,4.532-12.848c-0.819,0.086-3.145,0.413-4.85,1.568c0.784-1.129,3.851-2.533,5.625-2.671
					C38.646,8.505,41.102,5.817,44.393,3.093c0.723-0.698,1.327-1.18,1.74-1.387C45.521,2.172,44.952,2.637,44.393,3.093z"/>
				<path class="st1" d="M18.729,0C12.845,0.741,5.746,2.189,3.945,3.266c0,0-0.448,0.043-0.913,0.189
					c0.793-0.474,1.99-1.18,2.8-1.49C6.59,1.672,7.865,0.939,9.158,0H3.971C3.386,0.414,2.8,0.784,2.214,1.094
					C1.482,1.482,0.732,1.956,0,2.482v3.869c1.697-0.629,4.032-1.112,7.435-1.422C16.067,4.145,24.303,2.809,32.513,0H18.729z
					 M2.266,3.835c0.19-0.173,0.474-0.302,0.75-0.371C2.412,3.818,2.033,4.041,2.266,3.835z M10.458,0
					C9.967,0.405,9.64,0.655,9.554,0.733c0.215-0.035,2.016-0.362,3.765-0.526c0.31-0.026,0.836-0.104,1.516-0.207H10.458z
					 M10.458,0C9.967,0.405,9.64,0.655,9.554,0.733c0.215-0.035,2.016-0.362,3.765-0.526c0.31-0.026,0.836-0.104,1.516-0.207H10.458
					z"/>
				<path class="st1" d="M6.866,27.911c2.498-0.56,6.539-1.948,10.984-6.403c4.454-4.455,3.48-9.599,3.067-10.72
					c-0.422-1.112-7.237,1.956-8.21,5.015c-0.974,3.059-2.921,6.118-4.868,7.652c-1.947,1.534-2.231,0.414-0.422-0.974
					c1.809-1.396,1.258-7.652-0.689-8.91c-3.618,2.232-3.342,6.54-5.014,9.884C1.292,24.309,0.724,25.163,0,25.99v2.24
					c1.955-1.439,3.928-3.524,4.919-6.445c0.551,0.698-1.396,4.593-2.369,5.291c4.316-0.698,12.802-6.963,15.446-12.107
					c0.413,0.698-3.618,6.265-8.21,9.186c-4.592,2.921-6.539,3.472-8.348,4.446c-0.62,0.336-1.085,0.603-1.439,0.81v0.758
					c1.835,0.31,5.961,0.879,8.391,0.241C8.02,31.539,2.352,31.203,0,30.824v2.585c2.076,0.181,4.178,0.233,6.03,0.069
					c4.592-0.423,6.814-2.094,6.677-4.731c-1.947-1.258-4.73,0.414-6.539,0.552C4.359,29.437,4.359,28.463,6.866,27.911z"/>
				<path class="st1" d="M71.762,3.533c0.267-1.301,0.431-2.49,0.379-3.533h-7.073c0.37,1.293,0.586,2.637,0.586,4.05
					c0.379,1.784,0.06,2.99,0.009,3.18c0.25-0.396,3.481-5.73,3.748-6.799c0.275-1.112,0,2.921-2.507,5.989
					c-2.498,3.059-5.979,8.204-6.539,9.737c-0.551,1.534-0.551,1.112,0.973,0.698c1.533-0.422,4.454-1.81,4.04-1.112
					c-0.422,0.69-6.255,2.12-6.961,3.197c-2.464,3.766-6.866,7.652-7.676,8.721c2.584-4.171,4.48-5.661,4.618-6.075
					c0.138-0.422-0.56-4.179-0.138-4.455c0.413-0.276,0.689,3.197,1.111,2.783c0.414-0.414,3.618-4.317,4.032-5.842
					c0.422-1.534-1.809-4.179-2.498-6.403c-0.56-1.534,2.498,4.593,3.61,4.171c1.12-0.414,3.067-3.335,3.343-5.007
					C65.017,5.627,64.784,2.258,64.017,0h-4.523c1.172,1.965,1.344,2.68,1.568,4.748c0.284,2.629-1.378,3.473-1.576,0.414
					c-0.198-3.059-2.068-3.559-3.438-4.524c-1.361-0.974-1.352,1.689-1.189,5.73s1.025,4.222,2.033,5.791
					c1.008,1.577,0.06,3.077-1.06,1.801c0,0-1.06-1.982-1.611-1.922c-0.551,0.06-0.749,1.241-1.051,4.455
					c-0.319,3.283-1.275,4.507-2.542,6.765c-1.947,3.473-4.23,6.851-3.437,10.263c0.792,3.412,4.006,4.602,7.865,2.783
					c3.859-1.827,3.127-4.688,1.619-5.636c-1.499-0.956-3.549-0.457-4.101,0.862c-0.56,1.327,0.594,1.62,1.197,0.715
					c0.603-0.905,1.533-1.293,1.809-0.06c0.276,1.232-0.525,2.852-0.896,2.06c-0.362-0.801-0.552-1.207-1.396,0.008
					c-0.551,1.319-3.635,1.801-4.471-0.698c-0.948-2.852,3.377-5.48,6.926-6.29c3.549-0.81,7.409-2.628,7.641-4.335
					c-0.715-1.465-3.334,0.224-3.282-0.62c0.043-0.844,3.024-1.732,6.453-3.645c3.429-1.913,3.937-2.396,4.204-6.343
					c-1.335-0.689-2.869,0.595-4.316,1.457c-1.447,0.853-1.74,0.749-0.534-1.06C67.11,10.901,71.038,7.118,71.762,3.533z"/>
			</g>
		</g>
	</g>
	<g>
		<g>
			<g>
				<path class="st1" d="M100.158,67.38c-2.78,4.441-9.143,4.657-14.844,1.243c-5.7-3.414-5.195-11.768-4.355-12.28
					c0.84-0.513,0.07,0.303,2.205,0.706c2.135,0.403,3.798,2.638,3.75,5.204c-0.049,2.565,0.603,4.012,1.676,3.126
					c1.073-0.885-1.108-2.874,0.521-4.398c0.998-0.102,1.58,1.041,2.492,3.897c0.912,2.855,2.132,4.554,4.898,3.535
					c2.766-1.019,2.828-2.694,3.086-4.35c0.258-1.656-1.797-3.929-3.584-2.815c0.083,1.194-0.295,2.048-1.148,1.669
					c-0.853-0.379-0.778-1.162,0.403-2.136c1.181-0.974,2.002-1.291,4.29,0.61C101.836,63.29,101.326,65.515,100.158,67.38z"/>
				<path class="st1" d="M102.44,75.082c-5.29-0.56-15.446,1.672-21.425,9.462c-5.979,7.79-4.592,17.114-2.507,20.035
					c2.093,2.921,7.099,1.534,7.237-0.138c0.138-1.672-2.361-4.033-3.48-5.981c-1.111-1.947,1.12,0.552,1.12-0.974
					c0-1.534-0.698-1.947-0.973-3.067c-0.284-1.112,0.827,2.37,2.498,1.671c1.671-0.689,0.422-1.111,0-4.869
					c-0.414-3.757,1.396-6.954,2.783-7.514c1.396-0.56-0.973,3.757,0.138,7.937c1.12,4.171,4.454,5.842,6.263,5.42
					c1.809-0.414,0-2.223-0.56-4.731c-0.551-2.499,1.809,0.698,2.369-1.112c0.56-1.81-1.809-3.895-2.085-7.376
					c-0.284-3.481,4.307-6.954,6.814-7.514C103.137,75.78,102.44,75.082,102.44,75.082z M91.533,79.115
					c-0.465,1.284-1.714,5.584-0.672,12.314c-1.223-2.525-1.18-9.6-0.706-11.47c-0.767,0.483-1.611,1.034-2.533,1.663
					c-11.647,8.169-6.892,21.939-6.685,22.525c-0.121-0.129-1.077-1.361-1.663-6.454c-0.413-14.718,13.267-20.173,16.42-20.845
					C95.384,76.995,93.937,77.659,91.533,79.115z"/>
				<path class="st1" d="M128,67.809v-4.851c-7.34-8.324-17.195-12.262-25.104-13.77c-0.086-0.017-0.164-0.035-0.25-0.052
					c-0.138-0.026-0.259-0.052-0.396-0.069h-0.009c-4.884-0.879-8.959-0.81-11.122-0.293c4.799,1.62,12.767,6.11,14.826,9.375
					c2.059,3.266,4.618,1.56,3.687-2.12c0.767,0.664,2.412,2.801,3.05,6.187c0.637,3.378-0.267,6.635,2.92,7.712
					c0.715-0.353,2.145-1.051,2.042-4.257c-0.103-3.197,1.18,0.009,1.344,2.439c0.172,2.43,1.766,2.973,2.834,3.335
					c1.06,0.362,2.317-2.18,1.973-4.671c1.18,1.189,3.179,4.042,1.447,6.816c-1.732,2.783-2.619,3.068-2.981,4.136
					c-0.362,1.068,2.128,1.318,4.144,0.612c-1.603,1.241-5.996,3.111-10.372,0.836c-4.376-2.266-1.878-3.205-1.93-5.403
					c-0.043-2.188-2.593-2.257-2.783,0.638c-0.198,2.904,1.62,7.48,8.959,7.988c2.628,0.181,5.496-0.663,7.719-2.361V68.731
					c-1.533-3.559-5.669-7.272-10.381-10.582c1.533,1.31,3.644,6.773,3.11,7.187c-0.818-2.258-1.697-5.524-6.418-8.505
					c1.706,2.43,1.516,6.221,1.404,7.29c0-0.715-0.164-2.749-1.766-6.23c-2.05-4.456-9.45-5.972-12.707-6.876
					c6.099,0.681,9.528,2.24,16.498,6.187C122.736,60.028,126.561,64.793,128,67.809z"/>
				<path class="st1" d="M125.321,42.879c0.215,0.664,1.016,2.904,2.679,4.904v-3.456C127.052,43.844,126.156,43.353,125.321,42.879
					z M125.321,42.879c0.215,0.664,1.016,2.904,2.679,4.904v-3.456C127.052,43.844,126.156,43.353,125.321,42.879z M128,41.449
					c-3.222-1.008-7.133-2.93-8.951-4.843c-1.499-1.827-0.646,1.543-0.646,1.543c1.051,5.42,5.548,11.978,7.857,12.943
					c0.663-0.853,0.569-1.879,0.431-2.456c0.19,0.56,0.586,1.603,1.31,2.706v-3.43c-1.421-1.5-3.627-4.955-4.256-5.963
					c-1.904-1.181-3.231-2.189-3.523-2.74c1.921,1.551,5.229,3.231,7.779,4.24V41.449z M125.321,42.879
					c0.215,0.664,1.016,2.904,2.679,4.904v-3.456C127.052,43.844,126.156,43.353,125.321,42.879z"/>
				<g>
					<path class="st1" d="M127.897,89.412c-5.152-0.56-9.321,0-11.544,1.948c-2.231,1.948-3.342,3.343-4.178,3.197
						c-0.836-0.138-0.551-1.112,0.973-2.223c1.534-1.112,2.085-2.085,2.507-3.895c-5.29-0.422-10.157,3.481-12.94,6.954
						c-2.783,3.481-4.73,8.488-5.29,8.212c-0.551-0.276,0.147-1.947-0.689-3.619c-1.844,0.922-3.773,3.929-4.635,8.014h8.443
						c0.491-0.663,0.956-1.206,1.37-1.577c-0.104-0.836,3.136-10.435,7.409-12.943c-0.732,0.629-4.695,6.058-6.151,11.478
						c3.231-3.024,13.25-11.685,24.199-12.211c0.009,0,0.009,0.009,0.009,0.009c0,0.164-6.013,1.301-8.46,3.231
						c2.404-0.422,5.849,0,5.221,0.103c-0.629,0.104-4.695-0.103-6.995,0.732c-2.291,0.836-5.737,2.396-7.297,3.861
						c-1.568,1.457,11.053,0,13.456,0.836c1.146,0.414,1.982,0.733,1.249,0.733c-0.724,0-3.756-0.423-5.841-0.319
						c-2.085,0.104-8.451-0.104-9.39,0.104c-0.939,0.215-1.775,0.526-3.549,2.094c-0.732,0.638-2.076,2.042-3.567,3.869h7.211
						c2.291-1.525,4.557-2.611,6.513-3.145c2.231-0.836,6.263,0.146,9.597-0.276c0.982-0.12,1.809-0.241,2.472-0.379v-3.12
						c-0.81-1.051-1.818-2.025-4.557-1.646c-4.032,0.552-4.729-0.698-2.783-1.12c1.551-0.327,4.962,0.138,7.34-0.232v-8.661
						C127.965,89.421,127.931,89.412,127.897,89.412z"/>
				</g>
			</g>
			<path class="st1" d="M118.821,48.629c-6.461-6.032-7.107-16.804-2.369-20.466c0,0,0.646-2.37-0.861-1.292
				c-1.508,1.077-4.738,6.678-3.446,11.202c-0.646-1.077-0.646-4.74-4.738-6.032c-0.862,3.016,0.431,6.248,2.154,7.325
				c1.723,1.077,1.958,0.59,2.8,2.154c1.508,2.801,4.092,6.894,5.169,7.971C118.605,50.568,118.821,48.629,118.821,48.629z"/>
			<path class="st1" d="M106.545,77.928c1.292,4.093-1.077,8.617-3.446,9.694c-1.077-3.662,0.215-6.247,1.723-7.325
				c-2.584,1.508-4.523,1.293-4.523,1.293S100.73,77.928,106.545,77.928z"/>
		</g>
	</g>
	<g>
		<g>
			<g>
				<path class="st1" d="M93.695,43.329c-9.198-6.026-12.888-17.529-13.039-25.217c-0.129-7.499,1.421-9.033,2.074-6.8
					c0.653,2.234,4.337,5.645,2.179,10.143c-1.299,3.624-0.745,6.64,0.144,4.414c0.889-2.226,1.018-4.361,2.453-2.028
					c1.435,2.333-0.958,6.473-0.304,8.707c0,0,2.195-2.575,2.727,0.251C90.46,35.625,90.817,40.206,93.695,43.329z"/>
				<path class="st1" d="M121.858,11.418c1.895-2.051,2.757-3.835,6.142-5.067V2.482C124.029,5.317,120.488,9.746,121.858,11.418z"
					/>
				<path class="st1" d="M119.757,21.555c-1.53-0.557-2.156-3.34-1.6-4.522c1.739-0.626,3.2,1.322,3.478,2.922
					c0.278,1.6,0.974-2.505,4.452-1.531c-0.139,1.739-2.017,3.34-3.061,3.479c-1.043,0.139,1.461-0.209,2.574,3.688
					c-0.765,0.696-3.756-1.322-4.173-2.087c-0.557,1.044-2.365,2.227-4.104,2.018c0.348-2.296,1.53-3.131,2.226-3.409
					C120.244,21.833,119.757,21.555,119.757,21.555z"/>
				<path class="st1" d="M127.078,29.997c0,0,0.344,0.069,0.922,0.172v-0.749C127.319,29.816,127.078,29.997,127.078,29.997z
					 M127.078,29.997c0,0,0.344,0.069,0.922,0.172v-0.749C127.319,29.816,127.078,29.997,127.078,29.997z M128,25.99
					c-2.102,2.396-5.505,4.463-10.381,4.981c0,0-1.249,0.56,2.231,1.25c2.067,0.414,5.083,0.931,8.15,1.18v-2.576
					c-0.258-0.043-0.474-0.086-0.638-0.129c-1.671-0.422-2.783,0.414-2.783,0.414l-1.947-0.138c0,0,2.671-0.749,5.367-2.74V25.99z
					 M128,25.99c-2.102,2.396-5.505,4.463-10.381,4.981c0,0-1.249,0.56,2.231,1.25c2.067,0.414,5.083,0.931,8.15,1.18v-2.576
					c-0.258-0.043-0.474-0.086-0.638-0.129c-1.671-0.422-2.783,0.414-2.783,0.414l-1.947-0.138c0,0,2.671-0.749,5.367-2.74V25.99z
					 M127.078,29.997c0,0,0.344,0.069,0.922,0.172v-0.749C127.319,29.816,127.078,29.997,127.078,29.997z"/>
				<g>
					<path class="st1" d="M109.116,11.185c-0.973,0.698-2.369-1.525,2.223-3.335c4.592-1.81,4.316-5.153,4.04-6.678
						C115.233,0.388,115.017,0,114.389,0c-0.595,0-1.559,0.353-3.188,1.025c-3.756,1.396-10.846,8.496-12.802,15.865
						c-1.947,7.376-2.472,26.36,3.756,29.643c0.173,0.086,0.336,0.155,0.491,0.207c0.155,0.051,0.302,0.086,0.439,0.112
						c0.095,0.008,0.181,0.017,0.267,0.017c1.594,0,1.835-2.215,1.034-1.87c-0.973,0.422-1.947,0.974-3.205-2.086
						c-1.249-3.059,0.422-11.969,3.067-14.054c2.645-2.085,3.058-4.593-0.284-4.171c2.507-0.974,6.823-3.205,5.987-5.291
						c-0.836-2.085-2.783-0.138-3.342-0.698c-0.551-0.552,0.284-0.552,3.48-1.112c3.196-0.552,6.117-3.481,6.814-7.092
						C114.681,8.402,110.09,10.496,109.116,11.185z M100.458,22.112c-0.215,1.353,0.517,0.732,2.395-0.629
						c1.878-1.353,0.103-0.104-0.836,1.043c-0.939,1.155-2.395,0-3.127,13.779c-0.732-3.025-1.568-22.646,11.165-31.41
						c0.207,0-6.676,6.256-8.244,12.624c-0.517,1.043-0.517,1.982-0.517,1.982s5.841-6.885,10.433-6.678
						C106.928,14.598,101.501,19.087,100.458,22.112z"/>
					<path class="st1" d="M109.418,0h-7.219c-2.128,2.62-4.566,6.101-5.918,9.487c-2.292,5.739-2.714,20.975-2.714,20.975
						c-0.724-3.128-0.724-15.235,0.836-19.414c-0.31-2.499,0.319-9.497,0.629-10.125c0.31-0.621-0.103,8.247,0.104,9.082
						c1.542-3.662,3.661-7.643,5.41-10.005h-8.443c-0.172,0.853-0.31,1.758-0.379,2.697c-0.413,5.429-0.413,10.72-0.551,9.884
						c-0.138-0.836-1.396-3.481-1.533-1.81C89.5,12.443,88.94,31.505,97.71,42.216c-2.369-4.869-3.48-19.061-0.284-27.825
						C99.605,8.419,104.55,3.231,109.418,0z"/>
				</g>
			</g>
		</g>
	</g>
</g>
</svg>
